<?xml version="1.0" standalone="no"?>
<!DOCTYPE svg PUBLIC "-//W3C//DTD SVG 20010904//EN"
 "http://www.w3.org/TR/2001/REC-SVG-20010904/DTD/svg10.dtd">
<svg version="1.0" xmlns="http://www.w3.org/2000/svg"
 width="200.000000pt" height="200.000000pt" viewBox="0 0 200.000000 200.000000"
 preserveAspectRatio="xMidYMid meet">
<metadata>
Created by potrace 1.16, written by Peter Selinger 2001-2019
</metadata>
<g transform="translate(0.000000,200.000000) scale(0.100000,-0.100000)"
fill="#000000" stroke="none">
<path d="M835 1954 c-169 -39 -260 -75 -369 -148 -198 -132 -338 -327 -402
-561 -27 -101 -27 -379 0 -480 94 -343 348 -597 691 -691 101 -27 379 -27 480
0 398 109 685 447 713 840 18 241 -30 437 -152 620 -129 194 -311 326 -546
398 -51 16 -100 21 -230 24 -91 1 -174 1 -185 -2z m623 -605 c15 -6 45 -8 68
-4 32 4 46 1 67 -16 59 -45 86 -151 50 -191 -27 -30 -64 -22 -120 27 -74 65
-142 84 -177 49 -39 -38 -7 -70 111 -108 107 -35 155 -64 187 -114 72 -109 23
-253 -107 -317 -104 -51 -269 -53 -395 -7 -56 21 -89 72 -99 151 -9 74 1 101
36 101 24 0 38 -11 73 -57 24 -32 59 -66 78 -75 45 -23 127 -24 152 -1 38 35
15 59 -92 97 -115 41 -186 95 -216 163 -18 41 -18 124 0 166 27 65 114 129
199 147 47 10 146 4 185 -11z m-571 -25 c92 -45 138 -145 113 -247 -16 -61
-59 -110 -127 -144 -50 -24 -68 -27 -145 -27 l-88 1 0 -63 c0 -60 2 -64 35
-90 43 -33 46 -66 8 -91 -22 -15 -50 -18 -158 -18 -141 0 -179 10 -191 49 -5
15 2 27 30 51 l36 30 0 228 0 229 -40 15 c-47 19 -63 54 -36 81 14 14 47 18
189 23 254 9 309 5 374 -27z"/>
<path d="M640 1136 c0 -102 1 -104 24 -110 59 -15 106 32 106 105 0 66 -36
109 -91 109 l-39 0 0 -104z"/>
</g>
</svg>
